<?xml version="1.0" encoding="UTF-8"?>
<svg width="488px" height="720px" viewBox="0 0 488 720" version="1.1" xmlns="http://www.w3.org/2000/svg" xmlns:xlink="http://www.w3.org/1999/xlink">
    <!-- Generator: Sketch 41.1 (35376) - http://www.bohemiancoding.com/sketch -->
    <title>Group 3</title>
    <desc>Created with Sketch.</desc>
    <defs></defs>
    <g id="Page-1" stroke="none" stroke-width="1" fill="none" fill-rule="evenodd">
        <g id="Artboard" transform="translate(-680.000000, -284.000000)">
            <g id="Group-3" transform="translate(685.000000, 232.000000)">
                <text id="ATGG…" font-family="Courier-Bold, Courier" font-size="144" font-weight="bold" letter-spacing="10" fill="#000000">
                    <tspan x="14.4648438" y="457">ATGG…</tspan>
                </text>
                <g id="Group" transform="translate(0.000000, 437.000000)">
                    <path d="M0,0 L0,91.7625528 C0,91.7625528 99.5400571,91.7625528 150.5,91.7625528 C201.459943,91.7625528 301,91.7625528 301,91.7625528 L301,0" id="Path" stroke="#D0011B" stroke-width="10"></path>
                    <path d="M150.5,229.559615 L150.5,92.4480769" id="Line" stroke="#D0011B" stroke-width="10" stroke-linecap="square"></path>
                    <text id="ATG" font-family="Courier-Bold, Courier" font-size="144" font-weight="bold" letter-spacing="10" fill="#D0011B">
                        <tspan x="6.37890625" y="332">ATG</tspan>
                    </text>
                </g>
                <g id="Group-Copy" transform="translate(102.000000, 0.000000)">
                    <g id="Group-2" transform="translate(145.000000, 273.000000) rotate(180.000000) translate(-145.000000, -273.000000) translate(1.000000, 156.000000)" stroke="#4990E2" stroke-width="10">
                        <path d="M0,0 L0,91.7625528 C0,91.7625528 95.2409849,91.7625528 144,91.7625528 C192.759015,91.7625528 288,91.7625528 288,91.7625528 L288,0" id="Path"></path>
                        <path d="M144,232.559615 L144,95.4480769" id="Line" stroke-linecap="square"></path>
                    </g>
                    <text id="TGG" font-family="Courier-Bold, Courier" font-size="144" font-weight="bold" letter-spacing="10" fill="#4990E2">
                        <tspan x="0.37890625" y="138">TGG</tspan>
                    </text>
                </g>
            </g>
        </g>
    </g>
</svg>